HIERARCHY
ROOT Hips
{
	OFFSET -14.64140 90.27770 -84.91600
	CHANNELS 6 Xposition Yposition Zposition Zrotation Xrotation Yrotation
	JOINT Spine
	{
		OFFSET 0.00000 13.20850 -1.60436
		CHANNELS 3 Zrotation Xrotation Yrotation
		JOINT Spine1
		{
			OFFSET 0.00000 8.61716 0.00000
			CHANNELS 3 Zrotation Xrotation Yrotation
			JOINT Spine2
			{
				OFFSET 0.00000 8.61717 0.00000
				CHANNELS 3 Zrotation Xrotation Yrotation
				JOINT Spine3
				{
					OFFSET 0.00000 8.61717 0.00000
					CHANNELS 3 Zrotation Xrotation Yrotation
					JOINT Neck
					{
						OFFSET 0.00000 11.07920 1.10792
						CHANNELS 3 Zrotation Xrotation Yrotation
						JOINT Neck1
						{
							OFFSET 0.00000 7.08032 0.00000
							CHANNELS 3 Zrotation Xrotation Yrotation
							JOINT Head
							{
								OFFSET 0.00000 7.08031 0.00000
								CHANNELS 3 Zrotation Xrotation Yrotation
								End site
								{
									OFFSET 0.00000 0.00000 0.00000
								}
							}
						}
					}
					JOINT RightShoulder
					{
						OFFSET -0.01000 7.91373 5.19711
						CHANNELS 3 Zrotation Xrotation Yrotation
						JOINT RightArm
						{
							OFFSET -18.41580 0.00000 0.00000
							CHANNELS 3 Zrotation Xrotation Yrotation
							JOINT RightForeArm
							{
								OFFSET -29.11090 0.00000 0.00000
								CHANNELS 3 Zrotation Xrotation Yrotation
								JOINT RightHand
								{
									OFFSET -24.65040 0.00000 0.00000
									CHANNELS 3 Zrotation Xrotation Yrotation
									JOINT RightHandThumb1
									{
										OFFSET -5.35114 -0.85590 3.97906
										CHANNELS 3 Zrotation Xrotation Yrotation
										JOINT RightHandThumb2
										{
											OFFSET -4.52789 0.00000 0.00000
											CHANNELS 3 Zrotation Xrotation Yrotation
											JOINT RightHandThumb3
											{
												OFFSET -2.46976 0.00000 0.00000
												CHANNELS 3 Zrotation Xrotation Yrotation
												End site
												{
													OFFSET 0.00000 0.00000 0.00000
												}
											}
										}
									}
									JOINT RightHandIndex1
									{
										OFFSET -14.26970 0.00000 2.88139
										CHANNELS 3 Zrotation Xrotation Yrotation
										JOINT RightHandIndex2
										{
											OFFSET -5.48836 0.00000 0.00000
											CHANNELS 3 Zrotation Xrotation Yrotation
											JOINT RightHandIndex3
											{
												OFFSET -3.01859 0.00000 0.00000
												CHANNELS 3 Zrotation Xrotation Yrotation
												End site
												{
													OFFSET 0.00000 0.00000 0.00000
												}
											}
										}
									}
									JOINT RightHandMiddle1
									{
										OFFSET -14.26970 0.00000 -0.09147
										CHANNELS 3 Zrotation Xrotation Yrotation
										JOINT RightHandMiddle2
										{
											OFFSET -6.17441 0.00000 0.00000
											CHANNELS 3 Zrotation Xrotation Yrotation
											JOINT RightHandMiddle3
											{
												OFFSET -3.56743 0.00000 0.00000
												CHANNELS 3 Zrotation Xrotation Yrotation
												End site
												{
													OFFSET 0.00000 0.00000 0.00000
												}
											}
										}
									}
									JOINT RightHandRing1
									{
										OFFSET -12.69180 0.00000 -3.06433
										CHANNELS 3 Zrotation Xrotation Yrotation
										JOINT RightHandRing2
										{
											OFFSET -5.62556 0.00000 0.00000
											CHANNELS 3 Zrotation Xrotation Yrotation
											JOINT RightHandRing3
											{
												OFFSET -3.56744 0.00000 0.00000
												CHANNELS 3 Zrotation Xrotation Yrotation
												End site
												{
													OFFSET 0.00000 0.00000 0.00000
												}
											}
										}
									}
									JOINT RightHandPinky1
									{
										OFFSET -11.11390 0.00000 -6.03719
										CHANNELS 3 Zrotation Xrotation Yrotation
										JOINT RightHandPinky2
										{
											OFFSET -4.52789 0.00000 0.00000
											CHANNELS 3 Zrotation Xrotation Yrotation
											JOINT RightHandPinky3
											{
												OFFSET -2.46976 0.00000 0.00000
												CHANNELS 3 Zrotation Xrotation Yrotation
												End site
												{
													OFFSET 0.00000 0.00000 0.00000
												}
											}
										}
									}
								}
							}
						}
					}
					JOINT LeftShoulder
					{
						OFFSET 0.01000 7.91373 5.19711
						CHANNELS 3 Zrotation Xrotation Yrotation
						JOINT LeftArm
						{
							OFFSET 18.41580 0.00000 0.00000
							CHANNELS 3 Zrotation Xrotation Yrotation
							JOINT LeftForeArm
							{
								OFFSET 29.11090 0.00000 0.00000
								CHANNELS 3 Zrotation Xrotation Yrotation
								JOINT LeftHand
								{
									OFFSET 24.65040 0.00000 0.00000
									CHANNELS 3 Zrotation Xrotation Yrotation
									JOINT LeftHandThumb1
									{
										OFFSET 5.35114 -0.85590 3.97906
										CHANNELS 3 Zrotation Xrotation Yrotation
										JOINT LeftHandThumb2
										{
											OFFSET 4.52789 0.00000 0.00000
											CHANNELS 3 Zrotation Xrotation Yrotation
											JOINT LeftHandThumb3
											{
												OFFSET 2.46977 0.00000 0.00000
												CHANNELS 3 Zrotation Xrotation Yrotation
												End site
												{
													OFFSET 0.00000 0.00000 0.00000
												}
											}
										}
									}
									JOINT LeftHandIndex1
									{
										OFFSET 14.26970 0.00000 2.88139
										CHANNELS 3 Zrotation Xrotation Yrotation
										JOINT LeftHandIndex2
										{
											OFFSET 5.48836 0.00000 0.00000
											CHANNELS 3 Zrotation Xrotation Yrotation
											JOINT LeftHandIndex3
											{
												OFFSET 3.01859 0.00000 0.00000
												CHANNELS 3 Zrotation Xrotation Yrotation
												End site
												{
													OFFSET 0.00000 0.00000 0.00000
												}
											}
										}
									}
									JOINT LeftHandMiddle1
									{
										OFFSET 14.26970 0.00000 -0.09147
										CHANNELS 3 Zrotation Xrotation Yrotation
										JOINT LeftHandMiddle2
										{
											OFFSET 6.17440 0.00000 0.00000
											CHANNELS 3 Zrotation Xrotation Yrotation
											JOINT LeftHandMiddle3
											{
												OFFSET 3.56744 0.00000 0.00000
												CHANNELS 3 Zrotation Xrotation Yrotation
												End site
												{
													OFFSET 0.00000 0.00000 0.00000
												}
											}
										}
									}
									JOINT LeftHandRing1
									{
										OFFSET 12.69180 0.00000 -3.06433
										CHANNELS 3 Zrotation Xrotation Yrotation
										JOINT LeftHandRing2
										{
											OFFSET 5.62556 0.00000 0.00000
											CHANNELS 3 Zrotation Xrotation Yrotation
											JOINT LeftHandRing3
											{
												OFFSET 3.56744 0.00000 0.00000
												CHANNELS 3 Zrotation Xrotation Yrotation
												End site
												{
													OFFSET 0.00000 0.00000 0.00000
												}
											}
										}
									}
									JOINT LeftHandPinky1
									{
										OFFSET 11.11390 0.00000 -6.03719
										CHANNELS 3 Zrotation Xrotation Yrotation
										JOINT LeftHandPinky2
										{
											OFFSET 4.52789 0.00000 0.00000
											CHANNELS 3 Zrotation Xrotation Yrotation
											JOINT LeftHandPinky3
											{
												OFFSET 2.46976 0.00000 0.00000
												CHANNELS 3 Zrotation Xrotation Yrotation
												End site
												{
													OFFSET 0.00000 0.00000 0.00000
												}
											}
										}
									}
								}
							}
						}
					}
					JOINT pCube4
					{
						OFFSET 0.00000 10.91090 1.10792
						CHANNELS 3 Zrotation Xrotation Yrotation
						End site
						{
							OFFSET 0.00000 0.00000 0.00000
						}
					}
				}
			}
		}
	}
	JOINT RightUpLeg
	{
		OFFSET -9.98441 0.00000 0.00000
		CHANNELS 3 Zrotation Xrotation Yrotation
		JOINT RightLeg
		{
			OFFSET 0.00000 -42.11790 0.00000
			CHANNELS 3 Zrotation Xrotation Yrotation
			JOINT RightFoot
			{
				OFFSET 0.00000 -45.00020 -0.00001
				CHANNELS 3 Zrotation Xrotation Yrotation
				JOINT RightForeFoot
				{
					OFFSET 0.00000 -3.74820 0.00000
					CHANNELS 3 Zrotation Xrotation Yrotation
					JOINT RightToeBase
					{
						OFFSET 0.00000 0.06325 14.43120
						CHANNELS 3 Zrotation Xrotation Yrotation
						End site
						{
							OFFSET 0.00000 0.00000 0.00000
						}
					}
				}
			}
		}
	}
	JOINT LeftUpLeg
	{
		OFFSET 9.98441 0.00000 0.00000
		CHANNELS 3 Zrotation Xrotation Yrotation
		JOINT LeftLeg
		{
			OFFSET 0.00000 -42.11800 0.00000
			CHANNELS 3 Zrotation Xrotation Yrotation
			JOINT LeftFoot
			{
				OFFSET 0.00000 -45.00070 0.00000
				CHANNELS 3 Zrotation Xrotation Yrotation
				JOINT LeftForeFoot
				{
					OFFSET 0.00000 -3.74824 0.00000
					CHANNELS 3 Zrotation Xrotation Yrotation
					JOINT LeftToeBase
					{
						OFFSET 0.00000 0.06325 14.43110
						CHANNELS 3 Zrotation Xrotation Yrotation
						End site
						{
							OFFSET 0.00000 0.00000 0.00000
						}
					}
				}
			}
		}
	}
}
MOTION
Frames: 4
Frame Time: 0.050000
-0.01651259164086649 0.014651969700590751 -0.00031043114746318994 -0.03902949201564436 0.04486491249482723 0.021528147778993964 -2.037927434823628 2.8375256937838977 -0.9253356118671251 -0.9415261050571454 3.88271797243868 0.3997634282202681 -1.0572948506885187 -1.3788205283639974 -1.3237826098914163 -0.37945238151120597 0.4613547404210693 -0.8280186768432947 -1.0968142623065396 11.68170834887443 2.527294452550307 -0.003328920949844029 -2.0489139244939305 4.788059846059008 -0.5050426291871968 -18.719209211234755 0.40867114943992566 -3.461514151952068 1.4609035941534212 -14.399414270655244 73.39343199428248 21.696204186976626 0.3565880704429751 5.197029738959731 5.886475263574078 53.225643871576445 20.336841578918907 -0.08345505160514505 -4.443066188798449 4.549134603110803 -0.07898652576563066 -1.5973480239354167 0.04025195938710849 0.039360793488641466 -56.218000866565184 -0.005808825545335163 -0.0028074979780608566 -56.209569567678244 -38.76564077265408 -0.021191802225608927 -0.002147301133850997 0.000510501526911622 -0.04160881478386229 0.008686524076808071 0.008546081490752984 -0.02826343890489549 -0.025847501358656117 -36.70980055820585 0.0323196525983603 0.006204629714704894 -0.020233747575802624 0.025420459204245835 0.022546709055449993 0.04902345781813419 0.015073961674330357 -0.03396397220174249 -19.770420711617557 0.014553474267378306 0.005240275012440148 -0.02797029019384585 0.01757954882727178 0.04690068852086893 0.0032746426392400193 0.009629360914698284 -0.017257010095968493 24.07768793523168 -0.019656788155580748 -0.03484419217140407 28.831093899983784 0.03520526414727019 -0.021206164770800687 28.815987557418495 -0.019299213248194908 -0.0035874793567559813 6.6088488014482465 1.5495393117095555 12.736995412713812 -73.10322279207195 26.101223055128866 -10.878949568804046 -40.55757761022194 2.536109499489566 -78.658192603996 -11.952889605368618 -1.7668214471709733 1.7380950379038096 -0.5060932507847744 0.10503814110975374 -8.16996387872068 -0.014311236723804304 0.03958354745982948 44.54382251441439 0.0003298090877535848 -0.024302324902951377 44.59310975813301 12.479117156185593 0.03626017212518879 -0.017463048859398266 -0.042891257378681 0.006667561082033919 -0.006240872985232114 -0.020755412832767692 0.042280425164012585 0.0387924786816767 11.065269202121227 -0.01674295317126649 0.03787737039143848 -0.03426781956814997 -0.01923638213366996 -0.042367794413983494 0.0016506556717479528 -0.029665199793902537 0.03103476814395345 4.811608818629658 -0.02935269360220304 -0.0016328632919339323 -0.010202063123940727 -0.0020042215676943907 -0.02674782199127536 -0.043645821967028986 -0.015720834829389678 -0.0005552528975253442 -5.645224940946349 -0.021608703997095694 -0.0027220301148454004 -6.738239443563277 -0.0407438355099533 -0.006340334171048636 -6.682443967614681 0.027586041955356657 0.016400118348872214 0.04274907493962491 -0.03309157896057842 -0.01391239093452388 8.073812241425944 3.5020603023388546 -19.229605744969607 -0.015327495090147325 10.411471992406206 0.004973651508420544 -5.596225612285762 -15.68388971960842 3.2235911000723108 -0.0005471227380650435 0.028389674425581355 -0.012698631301282752 0.015829930084673174 4.716897523029383 -0.002251072748567208 12.453291568768773 -8.25092155122971 6.901916221841732 -0.008836700223773981 46.382220254108574 -0.04546814054357334 -4.277502968158605 -14.75081481592892 -3.868047044176552 -0.011538820433042154 0.00888137344248308 0.039207217733781344 0.01361190865278376 -10.737780651919381 0.03197369952652267 
0.019347626464167877 0.00767917203591577 -0.006266128326887059 0.04123479320363524 0.016670374822119693 -0.006976919718926423 -2.1917695366430223 2.6531852764685673 -0.8638040229571193 -1.0192235429259253 3.8247721365577405 0.3822243851046387 -0.984381206911143 -1.4572764809996344 -1.3704967038087452 -0.5034236069726135 0.4747189196527815 -0.8451978869376434 -1.2419249020099397 11.618078918738178 2.737095106964357 -0.009808194957783633 -1.9424010282037931 5.399955490581804 -0.581506879238362 -18.448366792235987 0.39863289455691203 -3.159755179169245 1.3420578114500703 -14.385368938686135 73.5189667252094 22.328807556890382 -0.2938419316310095 6.494398056233797 6.597795694685794 52.46275233059381 21.190026704918633 -0.06033106098366808 -4.53374980867803 4.554451210908474 -0.13584830166087733 -1.5995750598539176 0.030774780569471537 0.03495979185831959 -56.21039302995837 0.03463316070052558 -0.01832610789357429 -56.27948644759368 -38.74359297232118 -0.010103607833911957 -0.026392634916185494 0.021712567969743964 0.030199759548643172 0.0009697009078303962 -0.0014813701154835995 -0.011951214826264097 0.0317960587384679 -36.67303414315192 0.03742658650519112 0.014112061258759283 -0.010047875118362285 0.0286755622469351 0.021397137640676193 0.02270954923627062 -0.03639651046764959 -0.011788280524539368 -19.73765241190275 0.010938443479186322 -0.04185811739361248 0.028566139514437525 -0.04059138274322541 0.01113072553085071 0.02710240400557083 -0.012001126852450408 -0.03295880580409797 24.01066185487126 -0.046029797480915985 0.04692331841290953 28.878986718807596 0.02346374983161743 0.0022177882416097236 28.817454281963215 -0.0012374353158562598 -0.01219205915132086 6.637362516050479 1.5321226834916428 12.676161694509847 -73.25919810154883 25.723533140578276 -10.99267221743701 -45.034710393546035 2.8839353641336554 -82.27177709991456 -12.29397019865456 -2.0773218200594834 1.6930100249393172 -0.48970858046949123 0.07518185890503512 -8.102936607585987 -0.043436854565290194 -0.02844971069826859 44.60669055867837 -0.019381900846171793 0.006732998530055514 44.58871386528863 12.41639100736815 -0.01783432747599163 0.016946421272984544 -0.02365679424237433 0.0470589260641358 0.0005621090997916167 -0.03713089582231508 0.009654016272684456 0.030189172495054775 11.083369477162526 -0.007720899932567407 0.020116079159086184 -0.034025111284867515 -0.04468407502186199 -0.0005829105562304129 0.002680191615153519 0.0023121599815583652 -0.03910918167988721 4.777003053159858 0.005536535709060318 -0.007548986692772554 0.012133320610867677 0.006817498627120827 -0.0033569149630055676 -0.014025058870663751 -0.015705568028600382 -0.03584744549452969 -5.551951162885532 0.007664873070070341 -0.0062656974900179 -6.721976513130599 0.029131213860586085 -0.0161846436427267 -6.769827908999863 -0.010493063192162486 0.024700898920734543 -0.003411095559575152 0.02229281307721064 0.04037448625787135 8.087575359536183 3.4968954974474022 -19.227294228505887 0.010784095495639292 10.433376559685879 -0.024343955102388518 -5.639889674884519 -15.689415287839132 3.1729121232107254 -0.006824125063323971 0.01612624349677224 0.025592825379393343 -0.015622778068009298 4.6476409375540815 0.026170472139229916 12.421897518156447 -8.279961367684113 6.858063150787923 -0.04181293456944324 46.408949808808416 -0.02881358337884115 -4.305388376796393 -14.798018253424756 -3.8439088884364443 0.022803625519489435 -0.035339499148183934 -0.048043859238959694 -0.01752539945866381 -10.747496508324812 0.01779940214914124 
0.00723816523623012 0.007339018227740713 -0.0025414595895683805 0.038295063182117034 0.022122994835292124 -0.011153053853401313 -2.3566947992429723 2.513837647125519 -0.8247456391341851 -0.9476934861948583 3.776498488670214 0.3357355211864868 -0.9909588331995888 -1.4734548763683075 -1.5047179846968322 -0.4484178803413465 0.3962821464896225 -0.8352936998316746 -1.272107516463141 11.672502399394354 2.95266948650393 0.03809291015227095 -1.7533055322652933 5.869520832932418 -0.5909955062347164 -18.11701058532828 0.4803074070391741 -2.890585401149941 1.3375770914410818 -14.24657743593257 73.36585991376428 22.216018930086765 -0.686984170419234 7.350605767107216 7.08512296044691 51.81473963047751 22.120030811056214 -0.11184795905850338 -4.622640732894281 4.49638994376881 -0.1303690824948228 -1.6002676083970122 0.03198048300869202 -0.027166228339066918 -56.25972410000934 0.016701327095485073 -0.011529767207154127 -56.258824153420164 -38.761337501297106 0.0007362591634389176 0.046698569752509723 -0.022163817560318717 -0.03181892326214053 0.01869328175612602 0.040101565684964445 -0.023597612510762072 -0.029463884469825338 -36.73980269073748 0.008844522311359728 -0.033858172253259884 0.038810836262233965 -0.008550839607564436 0.04134058116361474 0.014029904467506352 -0.03381434385386373 0.04797849940052231 -19.744379376238182 0.00573256101450243 0.007872952680602452 -0.005209356654527084 0.03665276738890133 -0.038574424486368164 -0.012766368123601345 0.03682107775888725 0.014739843150849568 24.057169876957076 -0.019330622703692037 -0.00420496524968506 28.89609438276418 -0.008613662313849508 -0.01833812928464402 28.87847278517714 -0.022278955443853228 0.028324547173210212 6.537910731320151 1.4994046543591335 12.618788670559564 -72.92635470908844 25.30678359937057 -11.02922486972722 -48.5561750234503 2.740146122198182 -85.2090743707311 -12.549552481083765 -2.0670127499522706 1.587283853884219 -0.481375498894509 0.11086847944526042 -8.109875688676901 -0.03476394037661091 0.024737674571108113 44.571641020881444 -0.013473803037144658 0.017971908341565267 44.61317423623096 12.477565991527127 0.03711503575014896 0.04128009244238088 -0.008086891697828252 -0.019073574427818506 -0.0334284387605587 -0.002714547907025703 -0.006581428658486969 0.04649614816851306 11.123779594482624 0.0008375835629504093 -0.011178534575756545 -0.03926285712875542 -0.003838648689139099 -0.005591474745194686 0.02372569948271006 -0.0443710067810825 -0.009381538927409715 4.785383743837403 0.004439480696924577 0.015935227934525842 -0.041854090207386944 0.00643963206921449 -0.00035186557200412227 -0.006555650727930766 0.02862520307256874 0.01119196324045491 -5.647633771072308 -0.03853340811692145 -0.010733921668150717 -6.719219054808228 -0.016119778019048313 0.005327828855613404 -6.674770883786393 -0.018788041351974337 0.017809450585411026 0.022943827178322416 0.002707280547303979 0.049235693399234254 8.083573033227562 3.4614722540764222 -19.234405232031566 0.003109752924831907 10.44419652620631 -0.0012964261647585192 -5.600759028033769 -15.644129190514892 3.2416209716904176 0.004106166566359234 0.04649447650918875 0.02775448163448082 -0.010626312295720464 4.7006919851013675 0.004768576211593032 12.432595581134182 -8.279168704410969 6.868473736181722 0.028585597639301734 46.39083073463558 0.04347832340298224 -4.289379310043726 -14.767110541815725 -3.797581758867009 0.03428688158102303 -0.00299575643145318 -0.015840492854669753 0.036161324280017844 -10.74875408489507 -0.013971193527677034 
0.03653290857229272 0.02864780190608833 -0.034049379561545134 -0.035061392978871155 0.038095144351563144 -0.046905063447641476 -2.473086869158832 2.4364948980422403 -0.8064174519558486 -1.0007923411869366 3.739569942685169 0.3301258483439342 -1.0297984656770562 -1.5509925723107487 -1.5723968107630097 -0.5497309904225022 0.4847594864333297 -0.8593824336297666 -1.2767423158757654 11.648731180069205 3.065425138330231 0.057275382632775554 -1.6415961301402053 6.130150059698868 -0.6567537544637995 -17.767452268795 0.484371516736001 -2.760466153100131 1.2372854765725363 -14.194632654364037 73.08107687966634 21.97151549844272 -0.9979043053634877 7.728925498216791 7.164213827804005 51.36345625470203 22.812341034529595 -0.09543416981733048 -4.6667478203909125 4.505456409235378 -0.12838696655917295 -1.6052212465460876 0.0218938428397425 -0.04354251929911247 -56.2196960734782 0.046325917254404735 0.01819809995270826 -56.25175699931331 -38.776750598203485 0.009559806494895361 -0.018857963484600112 -0.00940471272495793 0.011930002085150314 0.00680111491263557 0.009487219964470156 -0.011551690595114168 -0.017443117541823424 -36.73036390309943 -0.009372739859509982 0.0217250452553141 -0.009969973640634847 -0.0055988313019574 -0.019742821532374645 0.0070298822895233405 -0.018871059682238362 0.04585312272554134 -19.71260336861334 -0.015624574111141029 0.03864884926210775 0.01610158089924631 0.0342308837799105 -0.027184914256035267 -0.007774662836253662 -0.005635570649719049 -0.009620703745437142 24.056065712565704 0.024862698053134947 0.0441353772019828 28.85631533710697 0.025325691875600187 -0.04653925263487395 28.882815686931618 0.005832620228907192 0.011990333663016897 6.449247470608799 1.516566778068611 12.59901915006083 -72.67031729597629 25.069451781646187 -11.01616427923425 -50.360783579474685 2.4869716707666996 -86.55291469698255 -12.443440403289639 -2.0468237910968665 1.4234812164776627 -0.43538685621536255 0.102769094315384 -8.096714198972398 0.020674108557141253 -0.04143651100899026 44.522943530088476 -0.0065109771362616056 0.005678367437648166 44.51877878537897 12.435809665039256 0.018759180644092835 -0.018357313722307388 0.011533621084186353 0.023093616897621086 0.025668195435796987 0.030319038726111643 0.024281912179482 -0.01885782148981238 11.149355608001486 -0.026113755396025083 -0.003590248088804411 0.002359579444898196 -0.017028656771140672 -0.01438965695250441 -0.04676085967926062 0.012826413818102735 0.02541265713689879 4.809622671430263 -0.016813653172149213 0.01016631974409433 0.00035911212732066744 -0.01606012646180281 -0.03907357267913482 -0.02220267363979017 0.010920572313857803 -0.018254983108311366 -5.573995645512826 -0.04868274889986369 -0.005461178255326421 -6.7006671276458185 -0.010596896010589971 0.036690606062123945 -6.671287884591456 0.03319199143046398 0.04445465492989666 -0.029688979592066313 0.016797490135197688 -0.03792492166407134 8.040671500365624 3.483976177821585 -19.17782824165728 0.02007984860618508 10.356188299197616 0.03293427776236886 -5.628899444527789 -15.612334347136583 3.2328740732377987 -0.016163430404009062 -0.01015010747855466 -0.00019500199485488162 -0.03818905581116163 4.72983286725011 -0.009460351971814858 12.423111390185218 -8.274692135992462 6.859503565194971 0.022316047781487876 46.407983148666894 0.010147693668047013 -4.361233475522889 -14.749890383521931 -3.8851723254373756 0.028244089026003522 0.023543535534387944 -0.007119080004115683 0.012179176328591466 -10.74486431439603 0.03271126360134212 
